<svg width="400" height="400" viewBox="0 0 400 400" fill="none" xmlns="http://www.w3.org/2000/svg">
<rect width="400" height="400" rx="200" fill="white"/>
<path d="M77 213.28H97.8V228H61V172H97.4V186.56H77V192.64H95.4V207.04H77V213.28ZM129.902 188H144.702V228H129.902V224.4C127.342 227.547 123.769 229.12 119.182 229.12C113.795 229.12 109.395 227.12 105.982 223.12C102.569 219.12 100.862 214.08 100.862 208C100.862 201.92 102.569 196.88 105.982 192.88C109.395 188.88 113.795 186.88 119.182 186.88C123.769 186.88 127.342 188.453 129.902 191.6V188ZM117.582 213.36C118.915 214.8 120.649 215.52 122.782 215.52C124.915 215.52 126.622 214.8 127.902 213.36C129.235 211.92 129.902 210.133 129.902 208C129.902 205.867 129.235 204.08 127.902 202.64C126.622 201.2 124.915 200.48 122.782 200.48C120.649 200.48 118.915 201.2 117.582 202.64C116.302 204.08 115.662 205.867 115.662 208C115.662 210.133 116.302 211.92 117.582 213.36ZM165.458 199.76C165.458 200.4 165.938 200.907 166.898 201.28C167.911 201.653 169.164 201.947 170.658 202.16C172.151 202.32 173.751 202.667 175.458 203.2C177.164 203.733 178.764 204.4 180.258 205.2C181.751 206 182.978 207.28 183.938 209.04C184.951 210.747 185.458 212.827 185.458 215.28C185.458 217.84 184.871 220.08 183.698 222C182.578 223.92 181.084 225.36 179.218 226.32C177.351 227.28 175.431 227.973 173.458 228.4C171.538 228.88 169.538 229.12 167.458 229.12C157.804 229.12 151.564 225.947 148.738 219.6L161.618 213.84C162.631 216.56 164.524 217.92 167.298 217.92C169.111 217.92 170.018 217.333 170.018 216.16C170.018 215.467 169.351 214.907 168.018 214.48C166.684 214.053 165.084 213.627 163.218 213.2C161.351 212.72 159.458 212.107 157.538 211.36C155.671 210.56 154.071 209.253 152.738 207.44C151.404 205.627 150.738 203.36 150.738 200.64C150.738 196.267 152.391 192.88 155.698 190.48C159.058 188.08 162.924 186.88 167.298 186.88C176.044 186.88 181.831 190.267 184.658 197.04L172.418 201.44C171.458 199.2 169.964 198.08 167.938 198.08C166.284 198.08 165.458 198.64 165.458 199.76ZM213.456 188H230.256L216.656 227.92C214.683 233.733 211.616 237.92 207.456 240.48C203.296 243.093 197.803 244.267 190.976 244V230C193.696 230 195.776 229.787 197.216 229.36C198.656 228.987 199.803 228.267 200.656 227.2L184.656 188H201.456L208.576 209.36L213.456 188ZM270.281 199.12C275.081 201.84 277.481 205.973 277.481 211.52C277.481 216.64 275.801 220.667 272.441 223.6C269.135 226.533 264.308 228 257.961 228H234.281V172H256.521C262.815 172 267.615 173.36 270.921 176.08C274.228 178.8 275.881 182.693 275.881 187.76C275.881 192.613 274.015 196.4 270.281 199.12ZM255.561 185.76H250.281V193.28L256.441 193.2C258.735 192.88 259.881 191.653 259.881 189.52C259.881 188.293 259.455 187.36 258.601 186.72C257.748 186.08 256.735 185.76 255.561 185.76ZM257.001 214.24C258.281 214.24 259.348 213.867 260.201 213.12C261.055 212.373 261.481 211.413 261.481 210.24C261.481 208 260.281 206.693 257.881 206.32L250.281 206.24V214.24H257.001ZM289.359 184.96C287.119 184.96 285.172 184.16 283.519 182.56C281.919 180.907 281.119 178.987 281.119 176.8C281.119 174.613 281.919 172.72 283.519 171.12C285.172 169.467 287.119 168.64 289.359 168.64C291.545 168.64 293.439 169.467 295.039 171.12C296.692 172.72 297.519 174.613 297.519 176.8C297.519 178.987 296.692 180.907 295.039 182.56C293.439 184.16 291.545 184.96 289.359 184.96ZM281.919 228V188H296.719V228H281.919ZM303.091 228V169.6H317.891V228H303.091ZM324.263 228V169.6H339.063V228H324.263Z" fill="#0000FF"/>
</svg>
